<svg version="1.1" xmlns="http://www.w3.org/2000/svg" width="100%" height="100%" viewBox="0 0 500 500">
<path d="M0 0 C26.07 0 52.14 0 79 0 C90.43274366 21.72221295 90.43274366 21.72221295 94.625 30.6875 C97.93996413 37.73697842 101.35031748 44.72921361 104.84565735 51.69046021 C108.73606758 59.44808115 112.52686873 67.25334938 116.3125 75.0625 C116.68061798 75.82113342 117.04873596 76.57976685 117.42800903 77.36138916 C124.55288068 92.04491225 131.61938526 106.75565294 138.609375 121.50390625 C139.04258057 122.41672363 139.47578613 123.32954102 139.92211914 124.27001953 C140.71716971 125.94602234 141.51083482 127.6226838 142.30249023 129.30029297 C144.72581387 134.4100106 147.22940181 139.47677257 149.765625 144.53125 C153.73224968 152.43696719 157.62097221 160.37900082 161.48217773 168.33666992 C162.56405041 170.56569437 163.64815554 172.79362347 164.73242188 175.02148438 C166.83298752 179.34221512 168.91881541 183.66990766 171 188 C171.51926056 189.07541046 171.51926056 189.07541046 172.04901123 190.17254639 C173.04809493 192.24619959 174.03892865 194.32358806 175.02734375 196.40234375 C175.32870743 197.02540909 175.63007111 197.64847443 175.94056702 198.29042053 C177.25263549 201.07167557 178 202.88021937 178 206 C178.66 206 179.32 206 180 206 C180.22945312 205.22269531 180.45890625 204.44539063 180.6953125 203.64453125 C182.42310998 198.81807901 184.63481082 194.29463881 186.875 189.6875 C187.38820801 188.62499023 187.90141602 187.56248047 188.43017578 186.46777344 C194.41957143 174.08865376 200.46323251 161.73568301 206.49804688 149.37866211 C213.15727011 135.74142802 219.77111148 122.08320941 226.35546875 108.40966797 C228.03451275 104.92844343 229.71958813 101.45019572 231.40625 97.97265625 C238.48317906 83.37049944 245.45801081 68.7252922 252.31982422 54.02075195 C256.72523349 44.59694832 261.32174668 35.29328701 266 26 C270.29 17.42 274.58 8.84 279 0 C305.4 0 331.8 0 359 0 C359 126.72 359 253.44 359 384 C348.11 384 337.22 384 326 384 C323.69 380.37 321.38 376.74 319 373 C316.83071217 369.8593504 314.6487518 366.73540636 312.4375 363.625 C307.383056 356.45843492 302.42448568 349.23607457 297.5625 341.9375 C297.00812256 341.10621582 296.45374512 340.27493164 295.88256836 339.41845703 C294.82760088 337.82912663 293.78369077 336.23237802 292.75315952 334.62709522 C291.05438113 332.00635504 291.05438113 332.00635504 289.18215084 329.69497967 C283.09493202 321.50147905 283.0088918 314.07590317 283.11352539 304.3293457 C283.10562317 302.67255491 283.09465286 301.01577637 283.08087158 299.35902405 C283.05230753 294.89252327 283.0663004 290.4270785 283.08831334 285.96057916 C283.104012 281.28135323 283.08004859 276.60232848 283.06040955 271.92314148 C283.02924538 263.07647763 283.03341465 254.23020255 283.05048412 245.38351458 C283.06819274 235.30598403 283.04619857 225.22866017 283.02097714 215.15115988 C282.97001129 194.43403484 282.96855414 173.71715319 283 153 C282.66070465 153.70741081 282.3214093 154.41482162 281.97183228 155.14366913 C280.41113026 158.39731789 278.85009845 161.65080832 277.2890625 164.90429688 C276.75547119 166.01681824 276.22187988 167.1293396 275.67211914 168.27557373 C271.14941299 177.70076186 266.5858292 187.1054046 262 196.5 C261.19060685 198.1596353 260.38128276 199.81930429 259.57202148 201.47900391 C257.46965599 205.79025002 255.36637887 210.10105072 253.26287842 214.41174316 C251.18640751 218.66744977 249.11081693 222.92358567 247.03515625 227.1796875 C244.13689513 233.12234025 241.23812739 239.06474537 238.33874512 245.0068512 C234.85321145 252.15026183 231.36878614 259.29420925 227.8868866 266.43939209 C226.07022544 270.16728061 224.25312602 273.89495543 222.43600464 277.62261963 C221.57553848 279.38809853 220.71528172 281.15367949 219.85525513 282.91937256 C218.65666304 285.38011326 217.45730984 287.84048172 216.2578125 290.30078125 C215.91484634 291.00541 215.57188019 291.71003876 215.21852112 292.4360199 C212.18899107 298.64676295 209.09090843 304.81818314 206 311 C188.18 311 170.36 311 152 311 C148.37 303.41 144.74 295.82 141 288 C136.99414302 279.77218277 136.99414302 279.77218277 132.97241211 271.55224609 C131.04896864 267.63122453 129.12644939 263.70975475 127.20532227 259.78759766 C125.15747447 255.60689498 123.10920355 251.42640011 121.06054688 247.24609375 C97.92393306 200.0319649 97.92393306 200.0319649 88 179.5 C87.46689209 178.39833496 86.93378418 177.29666992 86.38452148 176.16162109 C82.83908459 168.80926919 79.42177352 161.41384263 76 154 C75.67 229.9 75.34 305.8 75 384 C50.25 384 25.5 384 0 384 C0 257.28 0 130.56 0 0 Z " fill="#010303" transform="translate(167,208.27218671) scale(0.244140625)"/>
<path d="M0 0 C28.05 0 56.1 0 85 0 C85 49.83 85 99.66 85 151 C129.22 151 173.44 151 219 151 C219 101.17 219 51.34 219 0 C245.4 0 271.8 0 299 0 C299 127.38 299 254.76 299 386 C272.6 386 246.2 386 219 386 C219 333.86 219 281.72 219 228 C174.78 228 130.56 228 85 228 C85 280.14 85 332.28 85 386 C56.95 386 28.9 386 0 386 C0 258.62 0 131.24 0 0 Z " fill="#020302" transform="translate(88.662109375,207.78160088514197) scale(0.244140625)"/>
<path d="M0 0 C28.38 0 56.76 0 86 0 C86 49.83 86 99.66 86 151 C129.89 151 173.78 151 219 151 C219 101.17 219 51.34 219 0 C219.66 0 220.32 0 221 0 C222.5847168 2.04443359 222.5847168 2.04443359 224.44921875 4.8984375 C225.13306641 5.93613281 225.81691406 6.97382812 226.52148438 8.04296875 C227.23626953 9.14253906 227.95105469 10.24210938 228.6875 11.375 C230.08610663 13.50855562 231.48583629 15.64137549 232.88671875 17.7734375 C233.58200684 18.83272461 234.27729492 19.89201172 234.99365234 20.98339844 C236.75726807 23.63504554 238.55760253 26.25045851 240.39453125 28.8515625 C243.68240399 33.50844869 246.84578378 38.24082573 249.99960327 42.98881531 C254.62132595 49.94419411 259.29607843 56.86329051 263.97680664 63.77905273 C265.43392949 65.9322239 266.88986211 68.08619637 268.34570312 70.24023438 C274.03378048 78.65080416 279.76101016 87.03329074 285.52026367 95.39526367 C287.61538608 98.43812148 289.69975698 101.48810084 291.77734375 104.54296875 C292.31037109 105.32607422 292.84339844 106.10917969 293.39257812 106.91601562 C294.45115617 108.47243315 295.50838075 110.02977184 296.56445312 111.58789062 C297.08845703 112.35681641 297.61246094 113.12574219 298.15234375 113.91796875 C298.60601318 114.58594482 299.05968262 115.2539209 299.52709961 115.94213867 C300.97091239 118.09505291 300.97091239 118.09505291 303.06199265 119.96463299 C305.9207308 124.44207703 305.54095447 128.41452686 305.48101807 133.62373352 C305.48443577 134.70606347 305.48785347 135.78839342 305.49137473 136.90352124 C305.49797256 140.53661606 305.47594505 144.16897499 305.45410156 147.80200195 C305.4529735 150.40369143 305.45360613 153.00538219 305.45587158 155.60707092 C305.45796839 161.211583 305.44542478 166.81590872 305.42292023 172.42037392 C305.3904038 180.52344428 305.37999359 188.62642459 305.37496826 196.72955313 C305.36621504 209.87647516 305.33959874 223.02329789 305.30175781 236.17016602 C305.26503842 248.94066878 305.23672632 261.71114456 305.21972656 274.48168945 C305.21867567 275.26894267 305.21762477 276.05619588 305.21654204 276.86730526 C305.21132186 280.81674673 305.20626704 284.76618839 305.20129442 288.71563017 C305.15983151 321.47717478 305.08609326 354.23853472 305 387 C276.62 387 248.24 387 219 387 C219 334.53 219 282.06 219 228 C175.11 228 131.22 228 86 228 C86 280.47 86 332.94 86 387 C57.62 387 29.24 387 0 387 C0 259.29 0 131.58 0 0 Z " fill="#1EA79B" transform="translate(259.404296875,207.78160088514197) scale(0.244140625)"/>
<path d="M0 0 C12.68155724 -0.51141816 25.36063848 -0.9014241 38.05043316 -1.13986778 C43.94465171 -1.25436849 49.83178561 -1.40935093 55.72192383 -1.65966797 C93.69185252 -3.23153471 93.69185252 -3.23153471 102.33108521 2.02792358 C107.20138327 7.0157496 109.43603248 12.67258427 111.23080444 19.32263184 C112.27584228 22.9601347 113.90771587 25.6752059 115.91015625 28.87890625 C116.96342473 30.77205585 118.01426911 32.66655646 119.0625 34.5625 C120.24277206 36.68269126 121.42377309 38.80247686 122.60546875 40.921875 C123.17700684 41.94732422 123.74854492 42.97277344 124.33740234 44.02929688 C126.8238395 48.47202336 129.34501607 52.89446196 131.875 57.3125 C132.35420898 58.14966553 132.83341797 58.98683105 133.32714844 59.84936523 C135.49465713 63.63326688 137.66464663 67.41574109 139.83544922 71.19775391 C141.82932866 74.67262904 143.82181072 78.14829654 145.8125 81.625 C146.31778732 82.50738342 146.31778732 82.50738342 146.83328247 83.40759277 C152.5325864 93.36738284 158.12016942 103.38559206 163.67333984 113.42749023 C168.9901689 123.02561561 174.45357137 132.5330189 180 142 C184.02348121 137.44511562 186.66572159 132.33055765 189.5 127 C193.55609627 119.46707164 197.67384364 111.9800455 201.9375 104.5625 C202.94142485 102.81511485 203.94533093 101.06771892 204.94921875 99.3203125 C205.70211182 98.00981934 205.70211182 98.00981934 206.47021484 96.67285156 C209.08401395 92.10600308 211.66562799 87.52104351 214.25 82.9375 C241.08129234 35.40685516 241.08129234 35.40685516 249.03956604 22.50480652 C250.60360748 19.85488927 251.7957182 17.15315334 252.97155762 14.31121826 C258.62194653 1.59326781 258.62194653 1.59326781 264.2598629 -1.06587029 C270.8490921 -2.68615939 277.57374943 -2.18104219 284.29296875 -1.85546875 C286.45189025 -1.81998258 288.61096592 -1.79295968 290.77009583 -1.77400208 C296.42471786 -1.70180914 302.06990596 -1.51558318 307.7208252 -1.30462646 C313.4981315 -1.10943208 319.27698004 -1.02331518 325.05664062 -0.92773438 C336.37521597 -0.72460701 347.6868207 -0.40084204 359 0 C357.46323216 3.96232401 355.65188519 7.42674819 353.4375 11.0625 C352.86418945 12.00766479 352.86418945 12.00766479 352.27929688 12.97192383 C351.38168127 14.45070114 350.48228229 15.92839674 349.58154297 17.40527344 C347.79089012 20.3430719 346.00651598 23.28463432 344.22265625 26.2265625 C341.32914526 30.99750855 338.43318488 35.76695328 335.53515625 40.53515625 C332.5813999 45.39517891 329.63088998 50.25715089 326.68359375 55.12109375 C317.8501981 69.69592444 308.95700611 84.23266079 300.01025391 98.73828125 C297.93519131 102.10515474 295.86346957 105.4740704 293.79296875 108.84375 C287.02523265 119.85677923 280.2430435 130.85935365 273.37255859 141.80859375 C271.76165041 144.38054535 270.15608375 146.9557959 268.55078125 149.53125 C262.2892737 159.57233628 255.99855153 169.59209687 249.625 179.5625 C245.07048946 186.6911897 240.54660473 193.82483588 236.37310791 201.1849823 C234.86752423 203.73181118 233.43979836 205.62833815 231.43948364 207.87194824 C220.0940172 221.06106517 222.62279485 239.63247964 222.78413153 255.94060326 C222.81881296 260.52236216 222.79636294 265.10385759 222.78030396 269.68566895 C222.75849073 278.3376184 222.7871078 286.98861527 222.834427 295.64043283 C222.89549504 307.3486433 222.87747998 319.05672531 222.86419678 330.76504326 C222.84536738 349.17724712 222.93117554 367.58743169 223 386 C194.95 386 166.9 386 138 386 C138.04382812 374.35847656 138.08765625 362.71695312 138.1328125 350.72265625 C138.13830651 343.32611645 138.14125972 335.92971844 138.1328125 328.53320312 C138.11988765 316.80548482 138.11702508 305.07841188 138.18164062 293.35083008 C138.22866516 284.80728798 138.24005401 276.26453975 138.2099179 267.72090906 C138.19519353 263.20321594 138.1974519 258.68706763 138.24249649 254.16954231 C138.94134275 227.78997961 138.94134275 227.78997961 127 205 C125.93510185 203.34872688 124.89032547 201.68372821 123.890625 199.9921875 C123.01264757 198.6183634 122.13245823 197.24595022 121.25 195.875 C116.83392376 188.94481382 112.5116788 181.96365702 108.25 174.9375 C100.55746871 162.25611546 92.78758999 149.62319104 85 137 C84.41299316 136.04786621 83.82598633 135.09573242 83.22119141 134.11474609 C77.08425965 124.16358358 70.90743492 114.23979816 64.65258789 104.36230469 C58.70162482 94.9608483 52.81518741 85.51913647 46.92333984 76.08056641 C43.78410775 71.05253511 40.64189167 66.02636963 37.5 61 C36.88294189 60.01257813 36.26588379 59.02515625 35.63012695 58.0078125 C32.4813866 52.96917101 29.33154276 47.93122492 26.1796875 42.89453125 C20.00224508 33.02136538 13.83225214 23.14355135 7.6875 13.25 C6.86934814 11.93672729 6.86934814 11.93672729 6.03466797 10.59692383 C5.53209473 9.78634521 5.02952148 8.9757666 4.51171875 8.140625 C3.85369263 7.08149902 3.85369263 7.08149902 3.18237305 6.00097656 C2.02327982 4.03939736 1.00861767 2.04199668 0 0 Z " fill="#939493" transform="translate(322.9296875,207.78160088514197) scale(0.244140625)"/>
<path d="M0 0 C28.38 0 56.76 0 86 0 C86 49.5 86 99 86 150 C83.31473013 147.31473013 83.74085604 145.97302315 83.7215271 142.21676636 C83.71036362 140.98555054 83.69920013 139.75433472 83.68769836 138.48580933 C83.68533318 137.11407501 83.68315757 135.74234036 83.68115234 134.37060547 C83.67185823 132.93189935 83.66169034 131.49319864 83.65071106 130.05450439 C83.62333852 126.141536 83.60824028 122.22860375 83.59528303 118.31556463 C83.5796841 114.22889895 83.55288364 110.14230743 83.5272522 106.05569458 C83.48040688 98.31385855 83.4436907 90.57200866 83.41057932 82.83010304 C83.37239849 74.01760303 83.32297781 65.20517739 83.27259517 56.39274001 C83.1691898 38.26188106 83.07995747 20.13097675 83 2 C72.73415275 2.10739607 62.46837738 2.22000786 52.20266151 2.33933926 C47.43623826 2.39458021 42.66980888 2.44800209 37.90332031 2.49731445 C33.3062024 2.54494071 28.70916047 2.59728289 24.11213303 2.65294075 C22.35542052 2.67337219 20.59868718 2.69208395 18.84193802 2.70907402 C16.38754975 2.73310058 13.93330574 2.76315745 11.47900391 2.79467773 C10.74748611 2.8004332 10.01596832 2.80618866 9.26228333 2.81211853 C5.50559771 2.81190363 5.50559771 2.81190363 2 4 C1.67 130.06 1.34 256.12 1 386 C29.05 386 57.1 386 86 386 C86 386.33 86 386.66 86 387 C57.62 387 29.24 387 0 387 C0 259.29 0 131.58 0 0 Z " fill="#57B0A7" transform="translate(259.404296875,207.78160088514197) scale(0.244140625)"/>
<path d="M0 0 C0.99 0 1.98 0 3 0 C3.66 1.65 4.32 3.3 5 5 C5.66 5 6.32 5 7 5 C8.0625 6.8125 8.0625 6.8125 9 9 C8.67 9.99 8.34 10.98 8 12 C6.66382103 10.18959679 5.33112616 8.3766216 4 6.5625 C3.2575 5.55316406 2.515 4.54382813 1.75 3.50390625 C0 1 0 1 0 0 Z " fill="#D4F9F6" transform="translate(331.4287109375,244.60693359375) scale(0.244140625)"/>
</svg>